<?xml version="1.0" encoding="UTF-8" standalone="no"?>
<!-- Created with Inkscape (http://www.inkscape.org/) -->

<svg
   xmlns:dc="http://purl.org/dc/elements/1.1/"
   xmlns:cc="http://creativecommons.org/ns#"
   xmlns:rdf="http://www.w3.org/1999/02/22-rdf-syntax-ns#"
   xmlns:svg="http://www.w3.org/2000/svg"
   xmlns="http://www.w3.org/2000/svg"
   xmlns:sodipodi="http://sodipodi.sourceforge.net/DTD/sodipodi-0.dtd"
   xmlns:inkscape="http://www.inkscape.org/namespaces/inkscape"
   version="1.0"
   width="520"
   height="420"
   id="svg1478"
   sodipodi:version="0.32"
   inkscape:version="0.48.4 r9939"
   sodipodi:docname="Triangle.EulerLine.svg"
   inkscape:output_extension="org.inkscape.output.svg.inkscape">
  <metadata
     id="metadata91">
    <rdf:RDF>
      <cc:Work
         rdf:about="">
        <dc:format>image/svg+xml</dc:format>
        <dc:type
           rdf:resource="http://purl.org/dc/dcmitype/StillImage" />
      </cc:Work>
    </rdf:RDF>
  </metadata>
  <sodipodi:namedview
     inkscape:window-height="727"
     inkscape:window-width="902"
     inkscape:pageshadow="2"
     inkscape:pageopacity="0.0"
     guidetolerance="10.0"
     gridtolerance="10.0"
     objecttolerance="10.0"
     borderopacity="1.0"
     bordercolor="#666666"
     pagecolor="#ffffff"
     id="base"
     showgrid="false"
     inkscape:zoom="0.74725275"
     inkscape:cx="-39.282876"
     inkscape:cy="227.6002"
     inkscape:window-x="92"
     inkscape:window-y="34"
     inkscape:current-layer="svg1478"
     inkscape:window-maximized="0" />
  <defs
     id="defs1480"><inkscape:perspective
   sodipodi:type="inkscape:persp3d"
   inkscape:vp_x="0 : 76.5 : 1"
   inkscape:vp_y="0 : 1000 : 0"
   inkscape:vp_z="182 : 76.5 : 1"
   inkscape:persp3d-origin="91 : 51 : 1"
   id="perspective93" />











































</defs>
  <g
     style="fill:none;stroke:#000000;stroke-width:0.79701102;stroke-linecap:butt;stroke-linejoin:miter;stroke-miterlimit:10;stroke-opacity:1"
     id="g8"
     transform="matrix(2.8169014,0,0,2.8169014,-387.39209,-148.73198)">
	<path
   d="m 168.395,124.762 -22.145,67.316 170.078,0 -125.785,-134.633 -22.148,67.317 z"
   style="stroke:#000000;stroke-opacity:1"
   id="path10"
   inkscape:connector-curvature="0" />

</g>
  <g
     style="fill:none;stroke:#000000;stroke-width:0.79701102;stroke-linecap:butt;stroke-linejoin:miter;stroke-miterlimit:10;stroke-opacity:1"
     id="g12"
     transform="matrix(2.8169014,0,0,2.8169014,-387.39209,-148.73198)">
	<path
   d="M 282.371,138.875 144.449,156.629"
   style="stroke:#ff0000;stroke-opacity:1"
   id="path14"
   inkscape:connector-curvature="0" />

</g>
  <g
     style="fill:none;stroke:#000000;stroke-width:0.79701102;stroke-linecap:butt;stroke-linejoin:miter;stroke-miterlimit:10;stroke-opacity:1"
     id="g16"
     transform="matrix(2.8169014,0,0,2.8169014,-387.39209,-148.73198)">
	<path
   d="m 190.543,57.445 40.746,134.633"
   style="stroke:#ff7f00;stroke-opacity:1"
   id="path18"
   inkscape:connector-curvature="0" />

</g>
  <g
     style="fill:none;stroke:#000000;stroke-width:0.79701102;stroke-linecap:butt;stroke-linejoin:miter;stroke-miterlimit:10;stroke-opacity:1"
     id="g20"
     transform="matrix(2.8169014,0,0,2.8169014,-387.39209,-148.73198)">
	<path
   d="M 316.328,192.078 168.398,124.762"
   style="stroke:#ff7f00;stroke-opacity:1"
   id="path22"
   inkscape:connector-curvature="0" />

</g>
  <g
     style="fill:none;stroke:#000000;stroke-width:0.79701102;stroke-linecap:butt;stroke-linejoin:miter;stroke-miterlimit:10;stroke-opacity:1"
     id="g24"
     transform="matrix(2.8169014,0,0,2.8169014,-387.39209,-148.73198)">
	<path
   d="M 146.25,192.078 253.438,124.762"
   style="stroke:#ff7f00;stroke-opacity:1"
   id="path26"
   inkscape:connector-curvature="0" />

</g>
  <g
     style="fill:none;stroke:#000000;stroke-width:0.79701102;stroke-linecap:butt;stroke-linejoin:miter;stroke-miterlimit:10;stroke-opacity:1"
     id="g28"
     transform="matrix(2.8169014,0,0,2.8169014,-387.39209,-148.73198)">
	<path
   d="m 146.25,192.078 90.813,-84.844"
   style="stroke:#0000ff;stroke-opacity:1"
   id="path30"
   inkscape:connector-curvature="0" />

</g>
  <g
     style="fill:none;stroke:#000000;stroke-width:0.79701102;stroke-linecap:butt;stroke-linejoin:miter;stroke-miterlimit:10;stroke-opacity:1"
     id="g32"
     transform="matrix(2.8169014,0,0,2.8169014,-387.39209,-148.73198)">
	<path
   d="M 316.328,192.078 162.859,141.59"
   style="stroke:#0000ff;stroke-opacity:1"
   id="path34"
   inkscape:connector-curvature="0" />

</g>
  <g
     style="fill:none;stroke:#000000;stroke-width:0.79701102;stroke-linecap:butt;stroke-linejoin:miter;stroke-miterlimit:10;stroke-opacity:1"
     id="g36"
     transform="matrix(2.8169014,0,0,2.8169014,-387.39209,-148.73198)">
	<path
   d="m 190.543,57.445 0,134.633"
   style="stroke:#0000ff;stroke-opacity:1"
   id="path38"
   inkscape:connector-curvature="0" />

</g>
  <g
     style="fill:none;stroke:#000000;stroke-width:0.79701102;stroke-linecap:butt;stroke-linejoin:miter;stroke-miterlimit:10;stroke-opacity:1"
     id="g40"
     transform="matrix(2.8169014,0,0,2.8169014,-387.39209,-148.73198)">
	<path
   d="m 253.438,124.762 -82.411,76.992"
   style="stroke:#007f00;stroke-opacity:1"
   id="path42"
   inkscape:connector-curvature="0" />

</g>
  <g
     style="fill:none;stroke:#000000;stroke-width:0.79701102;stroke-linecap:butt;stroke-linejoin:miter;stroke-miterlimit:10;stroke-opacity:1"
     id="g44"
     transform="matrix(2.8169014,0,0,2.8169014,-387.39209,-148.73198)">
	<path
   d="m 168.398,124.762 136.239,44.816"
   style="stroke:#007f00;stroke-opacity:1"
   id="path46"
   inkscape:connector-curvature="0" />

</g>
  <g
     style="fill:none;stroke:#000000;stroke-width:0.79701102;stroke-linecap:butt;stroke-linejoin:miter;stroke-miterlimit:10;stroke-opacity:1"
     id="g48"
     transform="matrix(2.8169014,0,0,2.8169014,-387.39209,-148.73198)">
	<path
   d="m 231.289,192.078 0,-105.195"
   style="stroke:#007f00;stroke-opacity:1"
   id="path50"
   inkscape:connector-curvature="0" />

</g>
  <g
     style="fill:none;stroke:#000000;stroke-width:0.79701102;stroke-linecap:butt;stroke-linejoin:miter;stroke-miterlimit:10;stroke-opacity:1"
     id="g52"
     transform="matrix(2.8169014,0,0,2.8169014,-387.39209,-148.73198)">
	<path
   d="m 169.18969,187.828 0,8.5"
   style="stroke:#000000;stroke-opacity:1"
   id="path54"
   inkscape:connector-curvature="0" />

</g>
  <g
     style="fill:none;stroke:#000000;stroke-width:0.79701102;stroke-linecap:butt;stroke-linejoin:miter;stroke-miterlimit:10;stroke-opacity:1"
     id="g56"
     transform="matrix(2.8169014,0,0,2.8169014,-387.39209,-148.73198)">
	<path
   d="m 170.89269,187.828 0,8.5"
   style="stroke:#000000;stroke-opacity:1"
   id="path58"
   inkscape:connector-curvature="0" />

</g>
  <g
     style="fill:none;stroke:#000000;stroke-width:0.79701102;stroke-linecap:butt;stroke-linejoin:miter;stroke-miterlimit:10;stroke-opacity:1"
     id="g60"
     transform="matrix(2.8169014,0,0,2.8169014,-387.39209,-148.73198)">
	<path
   d="m 274.66,196.328 0,-8.5"
   style="stroke:#000000;stroke-opacity:1"
   id="path62"
   inkscape:connector-curvature="0" />

</g>
  <g
     style="fill:none;stroke:#000000;stroke-width:0.79701102;stroke-linecap:butt;stroke-linejoin:miter;stroke-miterlimit:10;stroke-opacity:1"
     id="g64"
     transform="matrix(2.8169014,0,0,2.8169014,-387.39209,-148.73198)">
	<path
   d="m 272.957,196.328 0,-8.5"
   style="stroke:#000000;stroke-opacity:1"
   id="path66"
   inkscape:connector-curvature="0" />

</g>
  <g
     style="fill:none;stroke:#000000;stroke-width:0.79701102;stroke-linecap:butt;stroke-linejoin:miter;stroke-miterlimit:10;stroke-opacity:1"
     id="g68"
     transform="matrix(2.8169014,0,0,2.8169014,-387.39209,-148.73198)">
	<path
   d="m 282.938,162.562 6.21,-5.804"
   style="stroke:#000000;stroke-opacity:1"
   id="path70"
   inkscape:connector-curvature="0" />

</g>
  <g
     style="fill:none;stroke:#000000;stroke-width:0.79701102;stroke-linecap:butt;stroke-linejoin:miter;stroke-miterlimit:10;stroke-opacity:1"
     id="g72"
     transform="matrix(2.8169014,0,0,2.8169014,-387.39209,-148.73198)">
	<path
   d="m 281.773,161.32 6.215,-5.804"
   style="stroke:#000000;stroke-opacity:1"
   id="path74"
   inkscape:connector-curvature="0" />

</g>
  <g
     style="fill:none;stroke:#000000;stroke-width:0.79701102;stroke-linecap:butt;stroke-linejoin:miter;stroke-miterlimit:10;stroke-opacity:1"
     id="g76"
     transform="matrix(2.8169014,0,0,2.8169014,-387.39209,-148.73198)">
	<path
   d="m 280.613,160.082 6.215,-5.809"
   style="stroke:#000000;stroke-opacity:1"
   id="path78"
   inkscape:connector-curvature="0" />

</g>
  <g
     style="fill:none;stroke:#000000;stroke-width:0.79701102;stroke-linecap:butt;stroke-linejoin:miter;stroke-miterlimit:10;stroke-opacity:1"
     id="g80"
     transform="matrix(2.8169014,0,0,2.8169014,-387.39209,-148.73198)">
	<path
   d="m 223.934,86.957 -6.215,5.805"
   style="stroke:#000000;stroke-opacity:1"
   id="path82"
   inkscape:connector-curvature="0" />

</g>
  <g
     style="fill:none;stroke:#000000;stroke-width:0.79701102;stroke-linecap:butt;stroke-linejoin:miter;stroke-miterlimit:10;stroke-opacity:1"
     id="g84"
     transform="matrix(2.8169014,0,0,2.8169014,-387.39209,-148.73198)">
	<path
   d="m 225.094,88.199 -6.211,5.805"
   style="stroke:#000000;stroke-opacity:1"
   id="path86"
   inkscape:connector-curvature="0" />

</g>
  <g
     style="fill:none;stroke:#000000;stroke-width:0.79701102;stroke-linecap:butt;stroke-linejoin:miter;stroke-miterlimit:10;stroke-opacity:1"
     id="g88"
     transform="matrix(2.8169014,0,0,2.8169014,-387.39209,-148.73198)">
	<path
   d="m 226.254,89.441 -6.211,5.809"
   style="stroke:#000000;stroke-opacity:1"
   id="path90"
   inkscape:connector-curvature="0" />

</g>
  <g
     style="fill:none;stroke:#000000;stroke-width:0.79701102;stroke-linecap:butt;stroke-linejoin:miter;stroke-miterlimit:10;stroke-opacity:1"
     id="g92"
     transform="matrix(2.8169014,0,0,2.8169014,-387.39209,-148.73198)">
	<path
   d="M 183.508,92.434 175.43,89.773"
   style="stroke:#000000;stroke-opacity:1"
   id="path94"
   inkscape:connector-curvature="0" />

</g>
  <g
     style="fill:none;stroke:#000000;stroke-width:0.79701102;stroke-linecap:butt;stroke-linejoin:miter;stroke-miterlimit:10;stroke-opacity:1"
     id="g96"
     transform="matrix(2.8169014,0,0,2.8169014,-387.39209,-148.73198)">
	<path
   d="m 153.281,157.09 8.082,2.66"
   style="stroke:#000000;stroke-opacity:1"
   id="path98"
   inkscape:connector-curvature="0" />

</g>
  <g
     style="fill:none;stroke:#000000;stroke-width:0.79701102;stroke-linecap:butt;stroke-linejoin:miter;stroke-miterlimit:10;stroke-opacity:1"
     id="g100"
     transform="matrix(2.8169014,0,0,2.8169014,-387.39209,-148.73198)">
	<path
   d="m 242.867,113.449 -6.215,5.805 -5.804,-6.215"
   style="stroke:#000000;stroke-opacity:1"
   id="path102"
   inkscape:connector-curvature="0" />

</g>
  <g
     style="fill:none;stroke:#000000;stroke-width:0.79701102;stroke-linecap:butt;stroke-linejoin:miter;stroke-miterlimit:10;stroke-opacity:1"
     id="g104"
     transform="matrix(2.8169014,0,0,2.8169014,-387.39209,-148.73198)">
	<path
   d="m 259.242,130.977 -6.219,5.804 -5.804,-6.215"
   style="stroke:#000000;stroke-opacity:1"
   id="path106"
   inkscape:connector-curvature="0" />

</g>
  <g
     style="fill:none;stroke:#000000;stroke-width:0.79701102;stroke-linecap:butt;stroke-linejoin:miter;stroke-miterlimit:10;stroke-opacity:1"
     id="g108"
     transform="matrix(2.8169014,0,0,2.8169014,-387.39209,-148.73198)">
	<path
   d="m 170.938,144.25 2.66,-8.078 -8.082,-2.66"
   style="stroke:#000000;stroke-opacity:1"
   id="path110"
   inkscape:connector-curvature="0" />

</g>
  <g
     style="fill:none;stroke:#000000;stroke-width:0.79701102;stroke-linecap:butt;stroke-linejoin:miter;stroke-miterlimit:10;stroke-opacity:1"
     id="g116"
     transform="matrix(2.8169014,0,0,2.8169014,-387.39209,-148.73198)">
	<path
   d="m 199.047,192.078 0,-8.504 -8.504,0"
   style="stroke:#000000;stroke-opacity:1"
   id="path118"
   inkscape:connector-curvature="0" />

</g>
  <g
     style="fill:none;stroke:#000000;stroke-width:0.79701102;stroke-linecap:butt;stroke-linejoin:miter;stroke-miterlimit:10;stroke-opacity:1"
     id="g120"
     transform="matrix(2.8169014,0,0,2.8169014,-387.39209,-148.73198)">
	<path
   d="m 239.793,192.078 0,-8.504 -8.504,0"
   style="stroke:#000000;stroke-opacity:1"
   id="path122"
   inkscape:connector-curvature="0" />

</g>
  <g
     style="fill:#7f7f7f;fill-rule:evenodd;stroke:#000000;stroke-width:0;stroke-linecap:butt;stroke-linejoin:miter;stroke-miterlimit:10;stroke-opacity:1"
     id="g124"
     transform="matrix(2.8169014,0,0,2.8169014,-387.39209,-148.73198)">
	<path
   d="m 150,192.5 c 0,-1.93 -1.57,-3.5 -3.5,-3.5 -1.93,0 -3.5,1.57 -3.5,3.5 0,1.93 1.57,3.5 3.5,3.5 1.93,0 3.5,-1.57 3.5,-3.5 z"
   style="fill:#ffffff;fill-opacity:1;stroke:#000000;stroke-width:0.5;stroke-miterlimit:10;stroke-opacity:1;stroke-dasharray:none"
   id="path126"
   inkscape:connector-curvature="0" />

</g>
  <g
     style="fill:#7f7f7f;fill-rule:evenodd;stroke:#000000;stroke-width:0;stroke-linecap:butt;stroke-linejoin:miter;stroke-miterlimit:10;stroke-opacity:1"
     id="g128"
     transform="matrix(2.8169014,0,0,2.8169014,-387.39209,-148.73198)">
	<path
   d="m 320,192.5 c 0,-1.93 -1.57,-3.5 -3.5,-3.5 -1.93,0 -3.5,1.57 -3.5,3.5 0,1.93 1.57,3.5 3.5,3.5 1.93,0 3.5,-1.57 3.5,-3.5 z"
   style="fill:#ffffff;fill-opacity:1;stroke:#000000;stroke-width:0.5;stroke-miterlimit:10;stroke-opacity:1;stroke-dasharray:none"
   id="path130"
   inkscape:connector-curvature="0" />

</g>
  <g
     style="fill:#7f7f7f;fill-rule:evenodd;stroke:#000000;stroke-width:0;stroke-linecap:butt;stroke-linejoin:miter;stroke-miterlimit:10;stroke-opacity:1"
     id="g132"
     transform="matrix(2.8169014,0,0,2.8169014,-387.39209,-148.73198)">
	<path
   d="m 194,57.5 c 0,-1.93 -1.57,-3.5 -3.5,-3.5 -1.93,0 -3.5,1.57 -3.5,3.5 0,1.93 1.57,3.5 3.5,3.5 1.93,0 3.5,-1.57 3.5,-3.5 z"
   style="fill:#ffffff;fill-opacity:1;stroke:#000000;stroke-width:0.5;stroke-miterlimit:10;stroke-opacity:1;stroke-dasharray:none"
   id="path134"
   inkscape:connector-curvature="0" />

</g>
  <g
     style="fill:#7f7f7f;fill-rule:evenodd;stroke:#000000;stroke-width:0;stroke-linecap:butt;stroke-linejoin:miter;stroke-miterlimit:10;stroke-opacity:1"
     id="g136"
     transform="matrix(2.8169014,0,0,2.8169014,-387.39209,-148.73198)">
	<path
   d="m 235,192.5 c 0,-1.93 -1.57,-3.5 -3.5,-3.5 -1.93,0 -3.5,1.57 -3.5,3.5 0,1.93 1.57,3.5 3.5,3.5 1.93,0 3.5,-1.57 3.5,-3.5 z"
   style="fill:#ffffff;fill-opacity:1;stroke:#000000;stroke-width:0.5;stroke-miterlimit:10;stroke-opacity:1;stroke-dasharray:none"
   id="path138"
   inkscape:connector-curvature="0" />

</g>
  <g
     style="fill:#7f7f7f;fill-rule:evenodd;stroke:#000000;stroke-width:0;stroke-linecap:butt;stroke-linejoin:miter;stroke-miterlimit:10;stroke-opacity:1"
     id="g140"
     transform="matrix(2.8169014,0,0,2.8169014,-387.39209,-148.73198)">
	<path
   d="m 257,124.5 c 0,-1.93 -1.57,-3.5 -3.5,-3.5 -1.93,0 -3.5,1.57 -3.5,3.5 0,1.93 1.57,3.5 3.5,3.5 1.93,0 3.5,-1.57 3.5,-3.5 z"
   style="fill:#ffffff;fill-opacity:1;stroke:#000000;stroke-width:0.5;stroke-miterlimit:10;stroke-opacity:1;stroke-dasharray:none"
   id="path142"
   inkscape:connector-curvature="0" />

</g>
  <g
     style="fill:#7f7f7f;fill-rule:evenodd;stroke:#000000;stroke-width:0;stroke-linecap:butt;stroke-linejoin:miter;stroke-miterlimit:10;stroke-opacity:1"
     id="g144"
     transform="matrix(2.8169014,0,0,2.8169014,-387.39209,-148.73198)">
	<path
   d="m 172,124.5 c 0,-1.93 -1.57,-3.5 -3.5,-3.5 -1.93,0 -3.5,1.57 -3.5,3.5 0,1.93 1.57,3.5 3.5,3.5 1.93,0 3.5,-1.57 3.5,-3.5 z"
   style="fill:#ffffff;fill-opacity:1;stroke:#000000;stroke-width:0.5;stroke-miterlimit:10;stroke-opacity:1;stroke-dasharray:none"
   id="path146"
   inkscape:connector-curvature="0" />

</g>
  <g
     style="fill:#7f7f7f;fill-rule:evenodd;stroke:#000000;stroke-width:0;stroke-linecap:butt;stroke-linejoin:miter;stroke-miterlimit:10;stroke-opacity:1"
     id="g148"
     transform="matrix(2.8169014,0,0,2.8169014,-387.39209,-148.73198)">
	<path
   d="m 221,147.5 c 0,-1.93 -1.57,-3.5 -3.5,-3.5 -1.93,0 -3.5,1.57 -3.5,3.5 0,1.93 1.57,3.5 3.5,3.5 1.93,0 3.5,-1.57 3.5,-3.5 z"
   style="fill:#ffffff;fill-opacity:1;stroke:#ff7f00;stroke-width:0.5;stroke-miterlimit:10;stroke-opacity:1;stroke-dasharray:none"
   id="path150"
   inkscape:connector-curvature="0" />

</g>
  <g
     style="fill:#7f7f7f;fill-rule:evenodd;stroke:#000000;stroke-width:0;stroke-linecap:butt;stroke-linejoin:miter;stroke-miterlimit:10;stroke-opacity:1"
     id="g152"
     transform="matrix(2.8169014,0,0,2.8169014,-387.39209,-148.73198)">
	<path
   d="m 241,107.5 c 0,-1.93 -1.57,-3.5 -3.5,-3.5 -1.93,0 -3.5,1.57 -3.5,3.5 0,1.93 1.57,3.5 3.5,3.5 1.93,0 3.5,-1.57 3.5,-3.5 z"
   style="fill:#ffffff;fill-opacity:1;stroke:#000000;stroke-width:0.5;stroke-miterlimit:10;stroke-opacity:1;stroke-dasharray:none"
   id="path154"
   inkscape:connector-curvature="0" />

</g>
  <g
     style="fill:#7f7f7f;fill-rule:evenodd;stroke:#000000;stroke-width:0;stroke-linecap:butt;stroke-linejoin:miter;stroke-miterlimit:10;stroke-opacity:1"
     id="g156"
     transform="matrix(2.8169014,0,0,2.8169014,-387.39209,-148.73198)">
	<path
   d="m 166,141.5 c 0,-1.93 -1.57,-3.5 -3.5,-3.5 -1.93,0 -3.5,1.57 -3.5,3.5 0,1.93 1.57,3.5 3.5,3.5 1.93,0 3.5,-1.57 3.5,-3.5 z"
   style="fill:#ffffff;fill-opacity:1;stroke:#000000;stroke-width:0.5;stroke-miterlimit:10;stroke-opacity:1;stroke-dasharray:none"
   id="path158"
   inkscape:connector-curvature="0" />

</g>
  <g
     style="fill:#7f7f7f;fill-rule:evenodd;stroke:#000000;stroke-width:0;stroke-linecap:butt;stroke-linejoin:miter;stroke-miterlimit:10;stroke-opacity:1"
     id="g160"
     transform="matrix(2.8169014,0,0,2.8169014,-387.39209,-148.73198)">
	<path
   d="m 194,192.5 c 0,-1.93 -1.57,-3.5 -3.5,-3.5 -1.93,0 -3.5,1.57 -3.5,3.5 0,1.93 1.57,3.5 3.5,3.5 1.93,0 3.5,-1.57 3.5,-3.5 z"
   style="fill:#ffffff;fill-opacity:1;stroke:#000000;stroke-width:0.5;stroke-miterlimit:10;stroke-opacity:1;stroke-dasharray:none"
   id="path162"
   inkscape:connector-curvature="0" />

</g>
  <g
     style="fill:#7f7f7f;fill-rule:evenodd;stroke:#000000;stroke-width:0;stroke-linecap:butt;stroke-linejoin:miter;stroke-miterlimit:10;stroke-opacity:1"
     id="g164"
     transform="matrix(2.8169014,0,0,2.8169014,-387.39209,-148.73198)">
	<path
   d="m 194,150.5 c 0,-1.93 -1.57,-3.5 -3.5,-3.5 -1.93,0 -3.5,1.57 -3.5,3.5 0,1.93 1.57,3.5 3.5,3.5 1.93,0 3.5,-1.57 3.5,-3.5 z"
   style="fill:#ffffff;fill-opacity:1;stroke:#0000ff;stroke-width:0.5;stroke-miterlimit:10;stroke-opacity:1;stroke-dasharray:none"
   id="path166"
   inkscape:connector-curvature="0" />

</g>
  <g
     style="fill:#7f7f7f;fill-rule:evenodd;stroke:#000000;stroke-width:0;stroke-linecap:butt;stroke-linejoin:miter;stroke-miterlimit:10;stroke-opacity:1"
     id="g168"
     transform="matrix(2.8169014,0,0,2.8169014,-387.39209,-148.73198)">
	<path
   d="m 235,145.5 c 0,-1.93 -1.57,-3.5 -3.5,-3.5 -1.93,0 -3.5,1.57 -3.5,3.5 0,1.93 1.57,3.5 3.5,3.5 1.93,0 3.5,-1.57 3.5,-3.5 z"
   style="fill:#ffffff;fill-opacity:1;stroke:#007f00;stroke-width:0.5;stroke-miterlimit:10;stroke-opacity:1;stroke-dasharray:none"
   id="path170"
   inkscape:connector-curvature="0" />

</g>
  <g
     style="fill:#7f7f7f;fill-rule:evenodd;stroke:#000000;stroke-width:0;stroke-linecap:butt;stroke-linejoin:miter;stroke-miterlimit:10;stroke-opacity:1"
     id="g172"
     transform="matrix(2.8169014,0,0,2.8169014,-387.39209,-148.73198)">
	<path
   d="m 214,148.5 c 0,-1.93 -1.57,-3.5 -3.5,-3.5 -1.93,0 -3.5,1.57 -3.5,3.5 0,1.93 1.57,3.5 3.5,3.5 1.93,0 3.5,-1.57 3.5,-3.5 z"
   style="fill:#ffffff;fill-opacity:1;stroke:#ff0000;stroke-width:0.5;stroke-miterlimit:10;stroke-opacity:1;stroke-dasharray:none"
   id="path174"
   inkscape:connector-curvature="0" />

</g>
  <g
     transform="matrix(2.8169014,0,0,2.8169014,-371.15552,-195.7857)"
     id="g3237"
     style="fill:none;stroke:#000000;stroke-width:0.79701102;stroke-linecap:butt;stroke-linejoin:miter;stroke-miterlimit:10;stroke-opacity:1">
	<path
   inkscape:connector-curvature="0"
   id="path3239"
   style="stroke:#000000;stroke-opacity:1"
   d="m 170.938,144.25 2.66,-8.078 -8.082,-2.66" />

</g>
</svg>
