<?xml version="1.0" encoding="UTF-8" standalone="no"?>
<!-- Created with Inkscape (http://www.inkscape.org/) -->
<svg
   xmlns:dc="http://purl.org/dc/elements/1.1/"
   xmlns:cc="http://web.resource.org/cc/"
   xmlns:rdf="http://www.w3.org/1999/02/22-rdf-syntax-ns#"
   xmlns:svg="http://www.w3.org/2000/svg"
   xmlns="http://www.w3.org/2000/svg"
   xmlns:sodipodi="http://sodipodi.sourceforge.net/DTD/sodipodi-0.dtd"
   xmlns:inkscape="http://www.inkscape.org/namespaces/inkscape"
   version="1.0"
   width="182"
   height="147"
   id="svg1414"
   sodipodi:version="0.32"
   inkscape:version="0.45"
   sodipodi:docname="Triangle.NinePointCircle.svg"
   inkscape:output_extension="org.inkscape.output.svg.inkscape"
   sodipodi:docbase="F:\Documents and Settings\Administrator\My Documents"
   sodipodi:modified="true">
  <metadata
     id="metadata2312">
    <rdf:RDF>
      <cc:Work
         rdf:about="">
        <dc:format>image/svg+xml</dc:format>
        <dc:type
           rdf:resource="http://purl.org/dc/dcmitype/StillImage" />
      </cc:Work>
    </rdf:RDF>
  </metadata>
  <sodipodi:namedview
     inkscape:window-height="744"
     inkscape:window-width="1280"
     inkscape:pageshadow="2"
     inkscape:pageopacity="0.0"
     guidetolerance="10.0"
     gridtolerance="10.0"
     objecttolerance="10.0"
     borderopacity="1.0"
     bordercolor="#666666"
     pagecolor="#ffffff"
     id="base"
     inkscape:zoom="3.8327975"
     inkscape:cx="52.281881"
     inkscape:cy="74.316739"
     inkscape:window-x="-4"
     inkscape:window-y="-4"
     inkscape:current-layer="layer1" />
  <defs
     id="defs1416" />
  <g
     id="layer1">
    <g
       transform="translate(-141.05143,-53.116827)"
       style="stroke:#000000;stroke-opacity:1"
       id="g6"
       xml:space="preserve">
<g
   style="fill:none;stroke:#000000;stroke-width:0.79701102;stroke-linecap:butt;stroke-linejoin:miter;stroke-miterlimit:10;stroke-opacity:1"
   id="g8">
	<path
   d="M 168.395,124.762 L 146.25,192.078 L 316.328,192.078 L 190.543,57.445 L 168.395,124.762 z "
   style="stroke:#000000;stroke-opacity:1"
   id="path10" />
</g>
<g
   style="fill:none;stroke:#000000;stroke-width:0.79701102;stroke-linecap:butt;stroke-linejoin:miter;stroke-miterlimit:10;stroke-opacity:1"
   id="g12">
	<path
   d="M 190.543,57.445 L 190.543,192.078"
   style="stroke:#ff0000;stroke-opacity:1"
   id="path14" />
</g>
<g
   style="fill:none;stroke:#000000;stroke-width:0.79701102;stroke-linecap:butt;stroke-linejoin:miter;stroke-miterlimit:10;stroke-opacity:1"
   id="g16">
	<path
   d="M 316.328,192.078 L 162.859,141.59"
   style="stroke:#ff0000;stroke-opacity:1"
   id="path18" />
</g>
<g
   style="fill:none;stroke:#000000;stroke-width:0.79701102;stroke-linecap:butt;stroke-linejoin:miter;stroke-miterlimit:10;stroke-opacity:1"
   id="g20">
	<path
   d="M 146.25,192.078 L 237.063,107.234"
   style="stroke:#ff0000;stroke-opacity:1"
   id="path22" />
</g>
<g
   style="fill:none;stroke:#000000;stroke-width:0.79701102;stroke-linecap:butt;stroke-linejoin:miter;stroke-miterlimit:10;stroke-opacity:1"
   id="g24">
	<path
   d="M 153.281,157.09 L 161.363,159.75"
   style="stroke:#000000;stroke-opacity:1"
   id="path26" />
</g>
<g
   style="fill:none;stroke:#000000;stroke-width:0.79701102;stroke-linecap:butt;stroke-linejoin:miter;stroke-miterlimit:10;stroke-opacity:1"
   id="g28">
	<path
   d="M 183.508,92.434 L 175.43,89.773"
   style="stroke:#000000;stroke-opacity:1"
   id="path30" />
</g>
<g
   style="fill:none;stroke:#000000;stroke-width:0.79701102;stroke-linecap:butt;stroke-linejoin:miter;stroke-miterlimit:10;stroke-opacity:1"
   id="g32">
	<path
   d="M 169.246,196.328 L 169.246,187.828"
   style="stroke:#000000;stroke-opacity:1"
   id="path34" />
</g>
<g
   style="fill:none;stroke:#000000;stroke-width:0.79701102;stroke-linecap:butt;stroke-linejoin:miter;stroke-miterlimit:10;stroke-opacity:1"
   id="g36">
	<path
   d="M 167.543,196.328 L 167.543,187.828"
   style="stroke:#000000;stroke-opacity:1"
   id="path38" />
</g>
<g
   style="fill:none;stroke:#000000;stroke-width:0.79701102;stroke-linecap:butt;stroke-linejoin:miter;stroke-miterlimit:10;stroke-opacity:1"
   id="g40">
	<path
   d="M 274.66,196.328 L 274.66,187.828"
   style="stroke:#000000;stroke-opacity:1"
   id="path42" />
</g>
<g
   style="fill:none;stroke:#000000;stroke-width:0.79701102;stroke-linecap:butt;stroke-linejoin:miter;stroke-miterlimit:10;stroke-opacity:1"
   id="g44">
	<path
   d="M 272.957,196.328 L 272.957,187.828"
   style="stroke:#000000;stroke-opacity:1"
   id="path46" />
</g>
<g
   style="fill:none;stroke:#000000;stroke-width:0.79701102;stroke-linecap:butt;stroke-linejoin:miter;stroke-miterlimit:10;stroke-opacity:1"
   id="g48">
	<path
   d="M 282.938,162.562 L 289.148,156.758"
   style="stroke:#000000;stroke-opacity:1"
   id="path50" />
</g>
<g
   style="fill:none;stroke:#000000;stroke-width:0.79701102;stroke-linecap:butt;stroke-linejoin:miter;stroke-miterlimit:10;stroke-opacity:1"
   id="g52">
	<path
   d="M 281.773,161.32 L 287.988,155.516"
   style="stroke:#000000;stroke-opacity:1"
   id="path54" />
</g>
<g
   style="fill:none;stroke:#000000;stroke-width:0.79701102;stroke-linecap:butt;stroke-linejoin:miter;stroke-miterlimit:10;stroke-opacity:1"
   id="g56">
	<path
   d="M 280.613,160.082 L 286.828,154.273"
   style="stroke:#000000;stroke-opacity:1"
   id="path58" />
</g>
<g
   style="fill:none;stroke:#000000;stroke-width:0.79701102;stroke-linecap:butt;stroke-linejoin:miter;stroke-miterlimit:10;stroke-opacity:1"
   id="g60">
	<path
   d="M 223.934,86.957 L 217.719,92.762"
   style="stroke:#000000;stroke-opacity:1"
   id="path62" />
</g>
<g
   style="fill:none;stroke:#000000;stroke-width:0.79701102;stroke-linecap:butt;stroke-linejoin:miter;stroke-miterlimit:10;stroke-opacity:1"
   id="g64">
	<path
   d="M 225.094,88.199 L 218.883,94.004"
   style="stroke:#000000;stroke-opacity:1"
   id="path66" />
</g>
<g
   style="fill:none;stroke:#000000;stroke-width:0.79701102;stroke-linecap:butt;stroke-linejoin:miter;stroke-miterlimit:10;stroke-opacity:1"
   id="g68">
	<path
   d="M 226.254,89.441 L 220.043,95.25"
   style="stroke:#000000;stroke-opacity:1"
   id="path70" />
</g>
<g
   style="fill:none;stroke:#000000;stroke-width:0.79701102;stroke-linecap:butt;stroke-linejoin:miter;stroke-miterlimit:10;stroke-opacity:1"
   id="g72">
	<path
   d="M 259.012,148.074 C 259.012,121.516 237.477,99.98 210.918,99.98 C 184.359,99.98 162.824,121.516 162.824,148.074 C 162.824,174.633 184.359,196.168 210.918,196.168 C 237.477,196.168 259.012,174.633 259.012,148.074 z "
   style="stroke:#ff0000;stroke-opacity:1"
   id="path74" />
</g>
<g
   style="fill:#7f7f7f;fill-rule:evenodd;stroke:#000000;stroke-width:0;stroke-linecap:butt;stroke-linejoin:miter;stroke-miterlimit:10;stroke-opacity:1"
   id="g76">
	<path
   d="M 194,192.5 C 194,190.57 192.43,189 190.5,189 C 188.57,189 187,190.57 187,192.5 C 187,194.43 188.57,196 190.5,196 C 192.43,196 194,194.43 194,192.5 z "
   style="fill:#ffffff;fill-opacity:1;stroke:#000000;stroke-width:0.5;stroke-miterlimit:10;stroke-dasharray:none;stroke-opacity:1"
   id="path78" />
</g>
<g
   style="fill:#7f7f7f;fill-rule:evenodd;stroke:#000000;stroke-width:0;stroke-linecap:butt;stroke-linejoin:miter;stroke-miterlimit:10;stroke-opacity:1"
   id="g80">
	<path
   d="M 235,192.5 C 235,190.57 233.43,189 231.5,189 C 229.57,189 228,190.57 228,192.5 C 228,194.43 229.57,196 231.5,196 C 233.43,196 235,194.43 235,192.5 z "
   style="fill:#ffffff;fill-opacity:1;stroke:#000000;stroke-width:0.5;stroke-miterlimit:10;stroke-dasharray:none;stroke-opacity:1"
   id="path82" />
</g>
<g
   style="fill:#7f7f7f;fill-rule:evenodd;stroke:#000000;stroke-width:0;stroke-linecap:butt;stroke-linejoin:miter;stroke-miterlimit:10;stroke-opacity:1"
   id="g84">
	<path
   d="M 257,124.5 C 257,122.57 255.43,121 253.5,121 C 251.57,121 250,122.57 250,124.5 C 250,126.43 251.57,128 253.5,128 C 255.43,128 257,126.43 257,124.5 z "
   style="fill:#ffffff;fill-opacity:1;stroke:#000000;stroke-width:0.5;stroke-miterlimit:10;stroke-dasharray:none;stroke-opacity:1"
   id="path86" />
</g>
<g
   style="fill:#7f7f7f;fill-rule:evenodd;stroke:#000000;stroke-width:0;stroke-linecap:butt;stroke-linejoin:miter;stroke-miterlimit:10;stroke-opacity:1"
   id="g88">
	<path
   d="M 241,107.5 C 241,105.57 239.43,104 237.5,104 C 235.57,104 234,105.57 234,107.5 C 234,109.43 235.57,111 237.5,111 C 239.43,111 241,109.43 241,107.5 z "
   style="fill:#ffffff;fill-opacity:1;stroke:#000000;stroke-width:0.5;stroke-miterlimit:10;stroke-dasharray:none;stroke-opacity:1"
   id="path90" />
</g>
<g
   style="fill:#7f7f7f;fill-rule:evenodd;stroke:#000000;stroke-width:0;stroke-linecap:butt;stroke-linejoin:miter;stroke-miterlimit:10;stroke-opacity:1"
   id="g92">
	<path
   d="M 166,141.5 C 166,139.57 164.43,138 162.5,138 C 160.57,138 159,139.57 159,141.5 C 159,143.43 160.57,145 162.5,145 C 164.43,145 166,143.43 166,141.5 z "
   style="fill:#ffffff;fill-opacity:1;stroke:#000000;stroke-width:0.5;stroke-miterlimit:10;stroke-dasharray:none;stroke-opacity:1"
   id="path94" />
</g>
<g
   style="fill:#7f7f7f;fill-rule:evenodd;stroke:#000000;stroke-width:0;stroke-linecap:butt;stroke-linejoin:miter;stroke-miterlimit:10;stroke-opacity:1"
   id="g96">
	<path
   d="M 172,124.5 C 172,122.57 170.43,121 168.5,121 C 166.57,121 165,122.57 165,124.5 C 165,126.43 166.57,128 168.5,128 C 170.43,128 172,126.43 172,124.5 z "
   style="fill:#ffffff;fill-opacity:1;stroke:#000000;stroke-width:0.5;stroke-miterlimit:10;stroke-dasharray:none;stroke-opacity:1"
   id="path98" />
</g>
<g
   style="fill:#7f7f7f;fill-rule:evenodd;stroke:#000000;stroke-width:0;stroke-linecap:butt;stroke-linejoin:miter;stroke-miterlimit:10;stroke-opacity:1"
   id="g100">
	<path
   d="M 172.17701,171.36661 C 172.17701,169.43661 170.60701,167.86661 168.67701,167.86661 C 166.74701,167.86661 165.17701,169.43661 165.17701,171.36661 C 165.17701,173.29661 166.74701,174.86661 168.67701,174.86661 C 170.60701,174.86661 172.17701,173.29661 172.17701,171.36661 z "
   style="fill:#ffffff;fill-opacity:1;stroke:#000000;stroke-width:0.5;stroke-miterlimit:10;stroke-dasharray:none;stroke-opacity:1"
   id="path102" />
</g>
<g
   style="fill:#7f7f7f;fill-rule:evenodd;stroke:#000000;stroke-width:0;stroke-linecap:butt;stroke-linejoin:miter;stroke-miterlimit:10;stroke-opacity:1"
   id="g104">
	<path
   d="M 256.33893,171.36661 C 256.33893,169.43661 254.76893,167.86661 252.83893,167.86661 C 250.90893,167.86661 249.33893,169.43661 249.33893,171.36661 C 249.33893,173.29661 250.90893,174.86661 252.83893,174.86661 C 254.76893,174.86661 256.33893,173.29661 256.33893,171.36661 z "
   style="fill:#ffffff;fill-opacity:1;stroke:#000000;stroke-width:0.5;stroke-miterlimit:10;stroke-dasharray:none;stroke-opacity:1"
   id="path106" />
</g>
<g
   style="fill:#7f7f7f;fill-rule:evenodd;stroke:#000000;stroke-width:0;stroke-linecap:butt;stroke-linejoin:miter;stroke-miterlimit:10;stroke-opacity:1"
   id="g108">
	<path
   d="M 194.26091,104.9849 C 194.26091,103.0549 192.69091,101.4849 190.76091,101.4849 C 188.83091,101.4849 187.26091,103.0549 187.26091,104.9849 C 187.26091,106.9149 188.83091,108.4849 190.76091,108.4849 C 192.69091,108.4849 194.26091,106.9149 194.26091,104.9849 z "
   style="fill:#ffffff;fill-opacity:1;stroke:#000000;stroke-width:0.5;stroke-miterlimit:10;stroke-dasharray:none;stroke-opacity:1"
   id="path110" />
</g>
</g>    <path
       style="fill:none;fill-rule:evenodd;stroke:#000000;stroke-width:1px;stroke-linecap:butt;stroke-linejoin:miter;stroke-opacity:1"
       d="M 53.485737,130.04111 L 53.485737,136.04195 L 59.225669,136.04194"
       id="path2334"
       sodipodi:nodetypes="ccc" />
    <path
       style="fill:none;fill-rule:evenodd;stroke:#000000;stroke-width:1px;stroke-linecap:butt;stroke-linejoin:miter;stroke-opacity:1"
       d="M 92.950513,62.933869 L 96.548037,59.336345 L 99.592096,62.749381"
       id="path2336"
       sodipodi:nodetypes="ccc" />
    <path
       style="fill:none;fill-rule:evenodd;stroke:#000000;stroke-width:1px;stroke-linecap:butt;stroke-linejoin:miter;stroke-opacity:1"
       d="M 30.316693,87.072915 L 25.981215,85.781496 L 27.457122,81.26153"
       id="path2338"
       sodipodi:nodetypes="ccc" />
  </g>
</svg>
